<svg xmlns="http://www.w3.org/2000/svg" width="4" height="20"><rect id="backgroundrect" width="100%" height="100%" x="0" y="0" fill="none" stroke="none" class="" style=""/>
    
<g class="currentLayer" style=""><title>Layer 1</title><path d="M2,0 C0.8954310000000003,0 0,0.8954304999999998 0,2 C0,3.1045695 0.8954310000000003,4 2,4 C3.1045690000000015,4 4,3.1045695 4,2 C4,0.8954304999999998 3.1045690000000015,0 2,0 zM2,8 C0.8954310000000003,8 0,8.895431 0,10 C0,11.104569000000001 0.8954310000000003,12 2,12 C3.1045690000000015,12 4,11.104569000000001 4,10 C4,8.895431 3.1045690000000015,8 2,8 zM2,16 C0.8954310000000003,16 0,16.895431 0,18 C0,19.104569 0.8954310000000003,20 2,20 C3.1045690000000015,20 4,19.104569 4,18 C4,16.895431 3.1045690000000015,16 2,16 z" id="svg_1" class="" fill="#b6b6b6" fill-opacity="1"/></g></svg>