<svg xmlns="http://www.w3.org/2000/svg" width="56" height="46"><rect id="backgroundrect" width="100%" height="100%" x="0" y="0" fill="none" stroke="none"/>
    
<g class="currentLayer" style=""><title>Layer 1</title><path stroke-width="0" fill="#ffffff" d="M56,5.965791702270508 L50,6.965791702270508 L54,1.9657917022705078 L47,3.965791702270508 C38,-6.034208297729492 24,4.965791702270508 28,13.965791702270508 C12,13.965791702270508 4,1.9657917022705078 4,1.9657917022705078 C4,1.9657917022705078 -2,10.965791702270508 8,17.965791702270508 L2,15.965791702270508 C2,21.965791702270508 6,25.965791702270508 13,27.965791702270508 L6,27.965791702270508 C10,35.96579170227051 17,35.96579170227051 17,35.96579170227051 C17,35.96579170227051 11,40.96579170227051 0,40.96579170227051 C33,56.96579170227051 53,26.965791702270508 50,10.965791702270508 z" id="svg_1" class="" fill-opacity="1"/></g></svg>