<svg xmlns="http://www.w3.org/2000/svg" width="20" height="20"><rect id="backgroundrect" width="100%" height="100%" x="0" y="0" fill="none" stroke="none"/>
  
<g class="currentLayer" style=""><title>Layer 1</title><path fill-rule="evenodd" d="M8.825091,0 L11.1738932,0 C12.8491598,0.0037914599999999687 13.2338099,0.01854560999999988 14.122698199999999,0.059102999999999906 C15.187141,0.10765278 15.914117399999999,0.2767234900000002 16.5502266,0.5239581499999999 C17.2078518,0.7794895500000001 17.7655588,1.12144192 18.3215589,1.67740233 C18.8775194,2.23340244 19.2194717,2.79110953 19.4750428,3.4487346700000003 C19.7222377,4.08484389 19.8913085,4.81182019 19.9398582,5.87626307 C19.9869049,6.9073734600000005 19.9992305,7.259980970000001 20,9.7357029 L20,10.2632942 C19.9992305,12.7389803 19.9869049,13.0915878 19.9398582,14.122698199999999 C19.8913085,15.187141 19.7222377,15.914117399999999 19.4750428,16.5502266 C19.2194717,17.2078518 18.8775194,17.7655588 18.3215589,18.3215589 C17.7655588,18.8775194 17.2078518,19.2194717 16.5502266,19.4750428 C15.914117399999999,19.7222377 15.187141,19.8913085 14.122698199999999,19.9398582 C13.0915878,19.9869049 12.7389803,19.9992305 10.2632942,20 L9.7357029,20 C7.259980970000001,19.9992305 6.9073734600000005,19.9869049 5.87626307,19.9398582 C4.81182019,19.8913085 4.08484389,19.7222377 3.4487346700000003,19.4750428 C2.79110953,19.2194717 2.23340244,18.8775194 1.67740233,18.3215589 C1.12144192,17.7655588 0.7794895500000001,17.2078518 0.5239581499999999,16.5502266 C0.2767234900000002,15.914117399999999 0.10765278,15.187141 0.059102999999999906,14.122698199999999 C0.01854560999999988,13.2338099 0.0037914599999999687,12.8491598 0,11.1738932 L0,8.825091 C0.0037914599999999687,7.149801439999999 0.01854560999999988,6.765151339999999 0.059102999999999906,5.87626307 C0.10765278,4.81182019 0.2767234900000002,4.08484389 0.5239581499999999,3.4487346700000003 C0.7794895500000001,2.79110953 1.12144192,2.23340244 1.67740233,1.67740233 C2.23340244,1.12144192 2.79110953,0.7794895500000001 3.4487346700000003,0.5239581499999999 C4.08484389,0.2767234900000002 4.81182019,0.10765278 5.87626307,0.059102999999999906 C6.765151339999999,0.01854560999999988 7.149801439999999,0.0037914599999999687 8.825091,0 L11.1738932,0 L8.825091,0 zM10.733046,1.80115495 L9.2659442,1.80115495 C7.2585795300000004,1.8032407300000002 6.907463440000001,1.81583469 5.9583967399999995,1.85913648 C4.98335214,1.90359743 4.45383012,2.0665150700000003 4.10143736,2.2034706899999996 C3.6346370400000003,2.38488726 3.30149746,2.6015947100000005 2.95156594,2.95156594 C2.6015947100000005,3.30149746 2.38488726,3.6346370400000003 2.2034706899999996,4.10143736 C2.0665150700000003,4.45383012 1.90359743,4.98335214 1.85913648,5.9583967399999995 C1.81583469,6.907463440000001 1.8032407300000002,7.2585795300000004 1.80115495,9.2659442 L1.80115495,10.733046 C1.8032407300000002,12.7403818 1.81583469,13.0914978 1.85913648,14.0405646 C1.90359743,15.015609099999999 2.0665150700000003,15.545131099999999 2.2034706899999996,15.8975239 C2.38488726,16.3643242 2.60163441,16.6974638 2.95156594,17.0473953 C3.30149746,17.3973665 3.6346370400000003,17.614074 4.10143736,17.7954906 C4.45383012,17.9324462 4.98335214,18.0953638 5.9583967399999995,18.1398247 C7.0127962,18.1879378 7.3290247399999995,18.1981401 9.9995005,18.1981401 C12.6699365,18.1981401 12.9862047,18.1879378 14.0405646,18.1398247 C15.015609099999999,18.0953638 15.545131099999999,17.9324462 15.8975239,17.7954906 C16.3643242,17.614074 16.6974638,17.3973665 17.0473953,17.0473953 C17.3973665,16.6974638 17.614074,16.3643242 17.7954906,15.8975239 C17.9324462,15.545131099999999 18.0953638,15.015609099999999 18.1398247,14.0405646 C18.1879378,12.986046 18.1981401,12.6697381 18.1981401,9.9995005 C18.1981401,7.329223219999999 18.1879378,7.0129152999999995 18.1398247,5.9583967399999995 C18.0953638,4.98335214 17.9324462,4.45383012 17.7954906,4.10143736 C17.614074,3.6346370400000003 17.3973665,3.30149746 17.0473953,2.95156594 C16.6974638,2.6015947100000005 16.3643242,2.38488726 15.8975239,2.2034706899999996 C15.545131099999999,2.0665150700000003 15.015609099999999,1.90359743 14.0405646,1.85913648 C13.0914978,1.81583469 12.7403818,1.8032407300000002 10.733046,1.80115495 zM9.9995,4.99920128 C12.7610764,4.99920128 14.999759999999998,7.2378848399999995 14.999759999999998,9.9995 C14.999759999999998,12.7610764 12.7610764,14.999759999999998 9.9995,14.999759999999998 C7.2378848399999995,14.999759999999998 4.99920128,12.7610764 4.99920128,9.9995 C4.99920128,7.2378848399999995 7.2378848399999995,4.99920128 9.9995,4.99920128 zM9.9995,6.75368323 C8.2068679,6.75368323 6.75368323,8.2068679 6.75368323,9.9995 C6.75368323,11.7920934 8.2068679,13.245278 9.9995,13.245278 C11.7920934,13.245278 13.245278,11.7920934 13.245278,9.9995 C13.245278,8.2068679 11.7920934,6.75368323 9.9995,6.75368323 zM15.4164293,3.33244149 C16.1068302,3.33244149 16.6665198,3.8921310499999997 16.6665198,4.5825320099999995 C16.6665198,5.27293296 16.1068302,5.83258117 15.4164293,5.83258117 C14.7260697,5.83258117 14.166380100000001,5.27293296 14.166380100000001,4.5825320099999995 C14.166380100000001,3.8921310499999997 14.7260697,3.33244149 15.4164293,3.33244149 z" id="svg_1" class="" fill="#ffffff" fill-opacity="1"/></g></svg>