<svg xmlns="http://www.w3.org/2000/svg" xmlns:xlink="http://www.w3.org/1999/xlink" style="enable-background:new 0 0 512 512;" version="1.1" xml:space="preserve" width="504" height="504"><rect id="backgroundrect" width="100%" height="100%" x="0" y="0" fill="none" stroke="none"/><g class="currentLayer" style=""><title>Layer 1</title><g id="svg_1" class="" fill="#ffffff" fill-opacity="1"><path d="M251.90000009536743,45.40000009536743 c67.3,0 75.2,0.30000000000000004 101.8,1.5 c24.6,1.1 37.9,5.2 46.8,8.7 c11.8,4.6 20.2,10 29,18.8 c8.8,8.8 14.3,17.2 18.8,29 c3.4,8.9 7.6,22.2 8.7,46.8 c1.2,26.6 1.5,34.5 1.5,101.8 s-0.30000000000000004,75.2 -1.5,101.8 c-1.1,24.6 -5.2,37.9 -8.7,46.8 c-4.6,11.8 -10,20.2 -18.8,29 c-8.8,8.8 -17.2,14.3 -29,18.8 c-8.9,3.4 -22.2,7.6 -46.8,8.7 c-26.6,1.2 -34.5,1.5 -101.8,1.5 s-75.2,-0.30000000000000004 -101.8,-1.5 c-24.6,-1.1 -37.9,-5.2 -46.8,-8.7 c-11.8,-4.6 -20.2,-10 -29,-18.8 c-8.8,-8.8 -14.3,-17.2 -18.8,-29 c-3.4,-8.9 -7.6,-22.2 -8.7,-46.8 c-1.2,-26.6 -1.5,-34.5 -1.5,-101.8 s0.30000000000000004,-75.2 1.5,-101.8 c1.1,-24.6 5.2,-37.9 8.7,-46.8 c4.6,-11.8 10,-20.2 18.8,-29 c8.8,-8.8 17.2,-14.3 29,-18.8 c8.9,-3.4 22.2,-7.6 46.8,-8.7 C176.70000009536744,45.600000095367434 184.60000009536742,45.40000009536743 251.90000009536743,45.40000009536743 M251.90000009536743,9.536743128535363e-8 c-68.4,0 -77,0.30000000000000004 -103.9,1.5 C121.20000009536743,2.7000000953674315 102.90000009536743,7.000000095367431 86.90000009536743,13.200000095367432 c-16.6,6.4 -30.6,15.1 -44.6,29.1 c-14,14 -22.6,28.1 -29.1,44.6 c-6.2,16 -10.5,34.3 -11.7,61.2 C0.300000095367432,174.90000009536743 9.536743128535363e-8,183.50000009536743 9.536743128535363e-8,251.90000009536743 c0,68.4 0.30000000000000004,77 1.5,103.9 c1.2,26.8 5.5,45.1 11.7,61.2 c6.4,16.6 15.1,30.6 29.1,44.6 c14,14 28.1,22.6 44.6,29.1 c16,6.2 34.3,10.5 61.2,11.7 c26.9,1.2 35.4,1.5 103.9,1.5 s77,-0.30000000000000004 103.9,-1.5 c26.8,-1.2 45.1,-5.5 61.2,-11.7 c16.6,-6.4 30.6,-15.1 44.6,-29.1 c14,-14 22.6,-28.1 29.1,-44.6 c6.2,-16 10.5,-34.3 11.7,-61.2 c1.2,-26.9 1.5,-35.4 1.5,-103.9 s-0.30000000000000004,-77 -1.5,-103.9 c-1.2,-26.8 -5.5,-45.1 -11.7,-61.2 c-6.4,-16.6 -15.1,-30.6 -29.1,-44.6 c-14,-14 -28.1,-22.6 -44.6,-29.1 c-16,-6.2 -34.3,-10.5 -61.2,-11.7 C328.90000009536743,0.300000095367432 320.3000000953674,9.536743128535363e-8 251.90000009536743,9.536743128535363e-8 L251.90000009536743,9.536743128535363e-8 z" id="svg_2" fill="#ffffff" fill-opacity="1"/><path d="M251.90000009536743,122.50000009536743 c-71.4,0 -129.4,57.9 -129.4,129.4 S180.50000009536743,381.3000000953674 251.90000009536743,381.3000000953674 S381.3000000953674,323.3000000953674 381.3000000953674,251.90000009536743 S323.3000000953674,122.50000009536743 251.90000009536743,122.50000009536743 zM251.90000009536743,335.90000009536743 c-46.4,0 -84,-37.6 -84,-84 s37.6,-84 84,-84 c46.4,0 84,37.6 84,84 S298.3000000953674,335.90000009536743 251.90000009536743,335.90000009536743 z" id="svg_3" fill="#ffffff" fill-opacity="1"/><circle cx="386.40000009536743" cy="117.40000009536743" r="30.200000762939453" id="svg_4" fill="#ffffff" fill-opacity="1"/></g></g></svg>