<svg xmlns="http://www.w3.org/2000/svg" width="452" height="452" fill="none"><rect id="backgroundrect" width="100%" height="100%" x="0" y="0" fill="none" stroke="none" class="" style=""/>

<g class="currentLayer" style=""><title>Layer 1</title><path fill-rule="evenodd" clip-rule="evenodd" d="M114,0 C51.039500000000004,0 0,51.039500000000004 0,114 V338 C0,400.96 51.039500000000004,452 114,452 H338 C400.96,452 452,400.96 452,338 V114 C452,51.039500000000004 400.96,0 338,0 H114 zM36,114 C36,70.922 70.922,36 114,36 H338 C381.078,36 416,70.922 416,114 V338 C416,381.078 381.078,416 338,416 H114 C70.922,416 36,381.078 36,338 V114 zM140,226 C140,178.504 178.504,140 226,140 C273.496,140 312,178.504 312,226 C312,273.496 273.496,312 226,312 C178.504,312 140,273.496 140,226 zM226,104 C158.621,104 104,158.621 104,226 C104,293.379 158.621,348 226,348 C293.379,348 348,293.379 348,226 C348,158.621 293.379,104 226,104 zM354,122 C367.255,122 378,111.255 378,98 C378,84.745 367.255,74 354,74 C340.745,74 330,84.745 330,98 C330,111.255 340.745,122 354,122 z" fill="#ffffff" id="svg_1" class="selected" fill-opacity="1"/></g></svg>